<svg viewBox="0 0 80 90" xmlns="http://www.w3.org/2000/svg" fill="#d4af37">
  <!-- Head -->
  <ellipse cx="40" cy="13" rx="7" ry="8"/>
  <!-- Beak -->
  <path d="M44 16 L52 20 L44 23 Z"/>
  <!-- Eye -->
  <circle cx="43" cy="11" r="1.8" fill="#1a1a2e"/>
  <!-- Neck -->
  <path d="M35 20 Q40 18 45 20 L46 32 Q40 30 34 32 Z"/>
  <!-- Body -->
  <ellipse cx="40" cy="48" rx="10" ry="18"/>
  <!-- Left wing upper -->
  <path d="M30 38 C22 32 8 28 3 35 C9 37 15 41 18 48 C10 45 4 48 5 55 C11 53 19 55 22 60 C14 61 9 66 13 71 C19 67 27 65 30 68 L32 52 Z"/>
  <!-- Right wing upper -->
  <path d="M50 38 C58 32 72 28 77 35 C71 37 65 41 62 48 C70 45 76 48 75 55 C69 53 61 55 58 60 C66 61 71 66 67 71 C61 67 53 65 50 68 L48 52 Z"/>
  <!-- Tail feathers -->
  <path d="M35 64 L31 78 L34 82 L37 75 L40 85 L43 75 L46 82 L49 78 L45 64 Z"/>
</svg>
